%TF.GenerationSoftware,KiCad,Pcbnew,(5.1.9)-1*%
%TF.CreationDate,2022-05-19T12:20:05-04:00*%
%TF.ProjectId,esp32pcbbot,65737033-3270-4636-9262-6f742e6b6963,rev?*%
%TF.SameCoordinates,Original*%
%TF.FileFunction,Plated,1,2,PTH,Mixed*%
%TF.FilePolarity,Positive*%
%FSLAX46Y46*%
G04 Gerber Fmt 4.6, Leading zero omitted, Abs format (unit mm)*
G04 Created by KiCad (PCBNEW (5.1.9)-1) date 2022-05-19 12:20:05*
%MOMM*%
%LPD*%
G01*
G04 APERTURE LIST*
%TA.AperFunction,ViaDrill*%
%ADD10C,0.400000*%
%TD*%
G04 aperture for slot hole*
%TA.AperFunction,ComponentDrill*%
%ADD11C,0.600000*%
%TD*%
%TA.AperFunction,ComponentDrill*%
%ADD12C,0.800000*%
%TD*%
%TA.AperFunction,ComponentDrill*%
%ADD13C,0.900000*%
%TD*%
%TA.AperFunction,ComponentDrill*%
%ADD14C,0.920000*%
%TD*%
%TA.AperFunction,ComponentDrill*%
%ADD15C,1.000000*%
%TD*%
%TA.AperFunction,ComponentDrill*%
%ADD16C,1.020000*%
%TD*%
%TA.AperFunction,ComponentDrill*%
%ADD17C,1.300000*%
%TD*%
%TA.AperFunction,ComponentDrill*%
%ADD18C,3.200000*%
%TD*%
G04 APERTURE END LIST*
D10*
X50523300Y-58061000D03*
X51304300Y-58865700D03*
X54969300Y-66111900D03*
X54969300Y-76986500D03*
X57603900Y-47291000D03*
X59229200Y-71083600D03*
X59494800Y-50891000D03*
X60261200Y-70232700D03*
X61076700Y-44844400D03*
X61681700Y-64131300D03*
X64418500Y-46484900D03*
X64780800Y-64234800D03*
X68349500Y-58800400D03*
X69344100Y-62368900D03*
X70924700Y-51118600D03*
X70937500Y-63356000D03*
X71515400Y-62176800D03*
X72744300Y-71785900D03*
X72825000Y-191878900D03*
X73750000Y-34260800D03*
X74746400Y-71874700D03*
X75359400Y-172716700D03*
X76452000Y-78789300D03*
X76840700Y-51145900D03*
X77115100Y-64206200D03*
X77121700Y-85089600D03*
X77206300Y-71969100D03*
X77272900Y-59600300D03*
X77998400Y-52167600D03*
X78505100Y-53644000D03*
X78779000Y-83151000D03*
X79081200Y-55719000D03*
X79164400Y-38900700D03*
X79518400Y-85831400D03*
X79899200Y-32034400D03*
X79899400Y-37156000D03*
X81140000Y-58454400D03*
X81320800Y-87171100D03*
X82247600Y-77828600D03*
X82611100Y-34550000D03*
X82618900Y-71755400D03*
X82633600Y-38237300D03*
X82923800Y-82273300D03*
X82992900Y-79750000D03*
X83514600Y-46026300D03*
X83516300Y-51368400D03*
X85291900Y-82259600D03*
X85350000Y-58715800D03*
X85611900Y-80624700D03*
X86349000Y-54115300D03*
X86823900Y-79021200D03*
X87034700Y-82710000D03*
X87546300Y-63298700D03*
X88416200Y-50833000D03*
X94450000Y-50081400D03*
X94909900Y-84176700D03*
X95611300Y-45780100D03*
X95879000Y-58732500D03*
X96822700Y-82997700D03*
X98248900Y-51018400D03*
X98248900Y-58804500D03*
X100115900Y-40573400D03*
X100116700Y-42739200D03*
X100521200Y-58906200D03*
X100726000Y-45175800D03*
X100808300Y-55635500D03*
X101853700Y-55795200D03*
X102661400Y-44269200D03*
X103384500Y-52068500D03*
X103398500Y-50469900D03*
X103510000Y-71680000D03*
X103745400Y-46031800D03*
X104057700Y-82494400D03*
X104437800Y-58523700D03*
X105088500Y-59664600D03*
X106628000Y-72218500D03*
X106903000Y-53555200D03*
X107650300Y-50537700D03*
X107825000Y-191923700D03*
X111789700Y-58554800D03*
X112960400Y-67257600D03*
X113062600Y-51891600D03*
X113130400Y-54594000D03*
X113130400Y-62840300D03*
D11*
%TO.C,USB1*%
X68680000Y-26650000D02*
X68680000Y-27250000D01*
X68680000Y-30580000D02*
X68680000Y-31680000D01*
X77320000Y-26650000D02*
X77320000Y-27250000D01*
X77320000Y-30580000D02*
X77320000Y-31680000D01*
D12*
%TO.C,U3*%
X41000000Y-61380000D03*
X41000000Y-69000000D03*
X43540000Y-61380000D03*
X43540000Y-69000000D03*
X46080000Y-61380000D03*
X46080000Y-69000000D03*
X48620000Y-61380000D03*
X48620000Y-69000000D03*
X51160000Y-61380000D03*
X51160000Y-69000000D03*
X53700000Y-61380000D03*
X53700000Y-69000000D03*
X56240000Y-61380000D03*
X56240000Y-69000000D03*
X58780000Y-61380000D03*
X58780000Y-69000000D03*
%TO.C,B1*%
X122000000Y-60650000D03*
X122000000Y-63190000D03*
X122000000Y-65730000D03*
X122000000Y-68270000D03*
X122000000Y-70810000D03*
X122000000Y-73350000D03*
D13*
%TO.C,D2*%
X62203949Y-186796051D03*
X64000000Y-185000000D03*
%TO.C,D1*%
X116000000Y-185000000D03*
X117796051Y-186796051D03*
D14*
%TO.C,Q4*%
X65000000Y-191000000D03*
X67540000Y-191000000D03*
%TO.C,Q3*%
X112000000Y-191000000D03*
X114540000Y-191000000D03*
D15*
%TO.C,J6*%
X51000000Y-75000000D03*
X53540000Y-75000000D03*
X56080000Y-75000000D03*
X58620000Y-75000000D03*
%TO.C,S5*%
X76060000Y-62000000D03*
X76060000Y-69620000D03*
X78600000Y-62000000D03*
X78600000Y-69620000D03*
X81140000Y-62000000D03*
X81140000Y-69620000D03*
X83680000Y-62000000D03*
X83680000Y-69620000D03*
X86220000Y-62000000D03*
X86220000Y-69620000D03*
%TO.C,J4*%
X86380000Y-180000000D03*
%TO.C,S5*%
X88760000Y-62000000D03*
X88760000Y-69620000D03*
%TO.C,J4*%
X88920000Y-180000000D03*
%TO.C,S5*%
X91300000Y-62000000D03*
X91300000Y-69620000D03*
%TO.C,J4*%
X91460000Y-180000000D03*
%TO.C,S5*%
X93840000Y-62000000D03*
X93840000Y-69620000D03*
%TO.C,J4*%
X94000000Y-180000000D03*
%TO.C,S5*%
X96380000Y-62000000D03*
X96380000Y-69620000D03*
X98920000Y-62000000D03*
X98920000Y-69620000D03*
X101460000Y-62000000D03*
X101460000Y-69620000D03*
X104000000Y-62000000D03*
X104000000Y-69620000D03*
D16*
%TO.C,J5*%
X66140000Y-74000000D03*
X66140000Y-76540000D03*
X68680000Y-74000000D03*
X68680000Y-76540000D03*
X71220000Y-74000000D03*
X71220000Y-76540000D03*
X73760000Y-74000000D03*
X73760000Y-76540000D03*
X76300000Y-74000000D03*
X76300000Y-76540000D03*
X78840000Y-74000000D03*
X78840000Y-76540000D03*
X81380000Y-74000000D03*
X81380000Y-76540000D03*
X83920000Y-74000000D03*
X83920000Y-76540000D03*
X86460000Y-74000000D03*
X86460000Y-76540000D03*
X89000000Y-74000000D03*
X89000000Y-76540000D03*
X91540000Y-74000000D03*
X91540000Y-76540000D03*
X94080000Y-74000000D03*
X94080000Y-76540000D03*
X96620000Y-74000000D03*
X96620000Y-76540000D03*
X99160000Y-74000000D03*
X99160000Y-76540000D03*
X101700000Y-74000000D03*
X101700000Y-76540000D03*
X104240000Y-74000000D03*
X104240000Y-76540000D03*
X106780000Y-74000000D03*
X106780000Y-76540000D03*
X109320000Y-74000000D03*
X109320000Y-76540000D03*
X111860000Y-74000000D03*
X111860000Y-76540000D03*
X114400000Y-74000000D03*
X114400000Y-76540000D03*
D17*
%TO.C,J2*%
X40000000Y-48000000D03*
X40000000Y-53000000D03*
%TO.C,J3*%
X105000000Y-30000000D03*
X110000000Y-30000000D03*
%TO.C,J1*%
X140000000Y-48000000D03*
X140000000Y-53000000D03*
D18*
%TO.C,U4*%
X90000000Y-105000000D03*
X90000000Y-159000000D03*
M02*
