%TF.GenerationSoftware,KiCad,Pcbnew,(5.1.9)-1*%
%TF.CreationDate,2022-05-19T12:20:13-04:00*%
%TF.ProjectId,esp32pcbbot,65737033-3270-4636-9262-6f742e6b6963,rev?*%
%TF.SameCoordinates,Original*%
%TF.FileFunction,Soldermask,Bot*%
%TF.FilePolarity,Negative*%
%FSLAX46Y46*%
G04 Gerber Fmt 4.6, Leading zero omitted, Abs format (unit mm)*
G04 Created by KiCad (PCBNEW (5.1.9)-1) date 2022-05-19 12:20:13*
%MOMM*%
%LPD*%
G01*
G04 APERTURE LIST*
%ADD10C,4.800000*%
%ADD11C,1.500000*%
%ADD12R,1.500000X1.500000*%
%ADD13C,1.550000*%
%ADD14C,1.950000*%
%ADD15C,1.800000*%
%ADD16C,0.100000*%
%ADD17O,1.000000X2.100000*%
%ADD18C,0.650000*%
%ADD19O,1.000000X1.600000*%
%ADD20O,1.600000X1.600000*%
%ADD21R,1.600000X1.600000*%
%ADD22C,1.431000*%
%ADD23R,2.000000X1.200000*%
%ADD24O,2.000000X1.200000*%
G04 APERTURE END LIST*
D10*
%TO.C,U4*%
X90000000Y-159000000D03*
X90000000Y-105000000D03*
%TD*%
D11*
%TO.C,S5*%
X76060000Y-69620000D03*
X76060000Y-62000000D03*
X78600000Y-69620000D03*
X78600000Y-62000000D03*
X81140000Y-69620000D03*
X81140000Y-62000000D03*
X83680000Y-69620000D03*
X83680000Y-62000000D03*
X86220000Y-69620000D03*
X86220000Y-62000000D03*
X88760000Y-69620000D03*
X88760000Y-62000000D03*
X91300000Y-69620000D03*
X91300000Y-62000000D03*
X93840000Y-69620000D03*
X93840000Y-62000000D03*
X96380000Y-69620000D03*
X96380000Y-62000000D03*
X98920000Y-69620000D03*
X98920000Y-62000000D03*
X101460000Y-69620000D03*
X101460000Y-62000000D03*
X104000000Y-69620000D03*
D12*
X104000000Y-62000000D03*
%TD*%
D11*
%TO.C,J6*%
X58620000Y-75000000D03*
X56080000Y-75000000D03*
X53540000Y-75000000D03*
D12*
X51000000Y-75000000D03*
%TD*%
D13*
%TO.C,J5*%
X66140000Y-74000000D03*
X66140000Y-76540000D03*
X68680000Y-74000000D03*
X68680000Y-76540000D03*
X71220000Y-74000000D03*
X71220000Y-76540000D03*
X73760000Y-74000000D03*
X73760000Y-76540000D03*
X76300000Y-74000000D03*
X76300000Y-76540000D03*
X78840000Y-74000000D03*
X78840000Y-76540000D03*
X81380000Y-74000000D03*
X81380000Y-76540000D03*
X83920000Y-74000000D03*
X83920000Y-76540000D03*
X86460000Y-74000000D03*
X86460000Y-76540000D03*
X89000000Y-74000000D03*
X89000000Y-76540000D03*
X91540000Y-74000000D03*
X91540000Y-76540000D03*
X94080000Y-74000000D03*
X94080000Y-76540000D03*
X96620000Y-74000000D03*
X96620000Y-76540000D03*
X99160000Y-74000000D03*
X99160000Y-76540000D03*
X101700000Y-74000000D03*
X101700000Y-76540000D03*
X104240000Y-74000000D03*
X104240000Y-76540000D03*
X106780000Y-74000000D03*
X106780000Y-76540000D03*
X109320000Y-74000000D03*
X109320000Y-76540000D03*
X111860000Y-74000000D03*
X111860000Y-76540000D03*
X114400000Y-74000000D03*
X114400000Y-76540000D03*
%TD*%
D11*
%TO.C,J4*%
X86380000Y-180000000D03*
X88920000Y-180000000D03*
X91460000Y-180000000D03*
D12*
X94000000Y-180000000D03*
%TD*%
D14*
%TO.C,J3*%
X110000000Y-30000000D03*
X105000000Y-30000000D03*
%TD*%
%TO.C,J2*%
X40000000Y-48000000D03*
X40000000Y-53000000D03*
%TD*%
%TO.C,J1*%
X140000000Y-53000000D03*
X140000000Y-48000000D03*
%TD*%
D15*
%TO.C,D2*%
X62203949Y-186796051D03*
D16*
G36*
X64000000Y-183727208D02*
G01*
X65272792Y-185000000D01*
X64000000Y-186272792D01*
X62727208Y-185000000D01*
X64000000Y-183727208D01*
G37*
%TD*%
D15*
%TO.C,D1*%
X117796051Y-186796051D03*
D16*
G36*
X114727208Y-185000000D02*
G01*
X116000000Y-183727208D01*
X117272792Y-185000000D01*
X116000000Y-186272792D01*
X114727208Y-185000000D01*
G37*
%TD*%
D17*
%TO.C,USB1*%
X68680000Y-31130000D03*
X77320000Y-31130000D03*
D18*
X75890000Y-30600000D03*
D19*
X77320000Y-26950000D03*
D18*
X70110000Y-30600000D03*
D19*
X68680000Y-26950000D03*
%TD*%
D20*
%TO.C,U3*%
X41000000Y-61380000D03*
X58780000Y-69000000D03*
X43540000Y-61380000D03*
X56240000Y-69000000D03*
X46080000Y-61380000D03*
X53700000Y-69000000D03*
X48620000Y-61380000D03*
X51160000Y-69000000D03*
X51160000Y-61380000D03*
X48620000Y-69000000D03*
X53700000Y-61380000D03*
X46080000Y-69000000D03*
X56240000Y-61380000D03*
X43540000Y-69000000D03*
X58780000Y-61380000D03*
D21*
X41000000Y-69000000D03*
%TD*%
D22*
%TO.C,Q4*%
X67540000Y-191000000D03*
X65000000Y-191000000D03*
%TD*%
%TO.C,Q3*%
X114540000Y-191000000D03*
X112000000Y-191000000D03*
%TD*%
D23*
%TO.C,B1*%
X122000000Y-73350000D03*
D24*
X122000000Y-70810000D03*
D23*
X122000000Y-68270000D03*
D24*
X122000000Y-65730000D03*
X122000000Y-63190000D03*
D23*
X122000000Y-60650000D03*
%TD*%
M02*
